HIERARCHY
ROOT pelvis
{
  OFFSET 0 100 0
  CHANNELS 6 Xposition Yposition Zposition Zrotation Xrotation Yrotation
  JOINT pelvis_right_femur
  {
    OFFSET -10.78128 -3.44521 -0.5502486
    CHANNELS 3 Zrotation Xrotation Yrotation
    JOINT right_femur_tibia
    {
      OFFSET -0.8047443 -44.0398 -0.1307829
      CHANNELS 3 Zrotation Xrotation Yrotation
      JOINT right_tibia_foot
      {
        OFFSET 3.006224 -47.83518 -5
        CHANNELS 3 Zrotation Xrotation Yrotation
        End Site
        {
          OFFSET 0 -5 15
        }
      }
    }
  }
  JOINT pelvis_left_femur
  {
    OFFSET 10.78128 -3.44521 -0.5502486
    CHANNELS 3 Zrotation Xrotation Yrotation
    JOINT left_femur_tibia
    {
      OFFSET 0.8047443 -44.0398 -0.1307829
      CHANNELS 3 Zrotation Xrotation Yrotation
      JOINT left_tibia_foot
      {
        OFFSET -4.370144 -48.10324 -4.275266
        CHANNELS 3 Zrotation Xrotation Yrotation
        End Site
        {
          OFFSET 0 -5 15
        }
      }
    }
  }
  JOINT pelvis_spine1
  {
    OFFSET 0 6.468898 -3.129235
    CHANNELS 3 Zrotation Xrotation Yrotation
    JOINT spine1
    {
      OFFSET 0 23.15396 4.99043
      CHANNELS 3 Zrotation Xrotation Yrotation
      JOINT spine2
      {
        OFFSET 0 20.79997 -5.064912
        CHANNELS 3 Zrotation Xrotation Yrotation
        JOINT neck
        {
          OFFSET 0 14.38658 9.616178
          CHANNELS 3 Zrotation Xrotation Yrotation
          End Site
          {
            OFFSET 0 20 0
          }
        }
      }
      JOINT right_manubrium
      {
        OFFSET -5.722621 16.35077 3.967754
        CHANNELS 3 Zrotation Xrotation Yrotation
        JOINT right_clavicle
        {
          OFFSET -13.16364 1.694482 -4.693211
          CHANNELS 3 Zrotation Xrotation Yrotation
          JOINT right_humerus
          {
            OFFSET -28.5034 -0.3100689 -2.792744
            CHANNELS 3 Zrotation Xrotation Yrotation
            JOINT right_radius
            {
              OFFSET -25.15693 0.02248979 -1.271978
              CHANNELS 3 Zrotation Xrotation Yrotation
              End Site
              {
                OFFSET -15 0 0
              }
            }
          }
        }
      }
      JOINT left_manubrium
      {
        OFFSET 5.722621 16.35077 3.967754
        CHANNELS 3 Zrotation Xrotation Yrotation
        JOINT left_clavicle
        {
          OFFSET 13.16364 1.694482 -4.693211
          CHANNELS 3 Zrotation Xrotation Yrotation
          JOINT left_humerus
          {
            OFFSET 29.39168 -1.063119 -2.237045
            CHANNELS 3 Zrotation Xrotation Yrotation
            JOINT left_radius
            {
              OFFSET 24.59957 -0.9528479 0.9047498
              CHANNELS 3 Zrotation Xrotation Yrotation
              End Site
              {
                OFFSET 15 -0 -0
              }
            }
          }
        }
      }
    }
  }
}
MOTION
Frames: 9
Frame Time: 0.0416666666667
38.32024 101.1259 265.9544 1.163844 -7.679496 1.967057 2.21457 15.74515 5.293951 -0 30.25853 -0 3.215 -9.571511 -2.564616 -0.5670264 -24.66059 -2.968454 -0 25.04057 -0 -7.99318 -7.921406 19.07665 0.2161563 1.239822 9.070906 -2.522926 11.77012 -1.806362 2.453056 19.54877 2.860759 0.05920188 -11.36855 5.651405 0.5944988 -23.67807 10.92641 78.33031 15.3207 -0.9035653 -0 0 28.76789 -23.80395 10.8266 13.78211 2.685892 -15.48152 -1.883817 -91.24767 21.43148 25.33098 0 0 -13.05671 -3.851267 6.09998 19.83919
39.78439 101.4552 273.4673 1.912397 -7.906006 2.137487 1.129813 15.4947 4.911574 -0 38.12613 -0 3.05396 -6.67341 -3.634372 -2.365163 -21.40703 -4.101448 -0 26.9659 -0 -7.713531 -8.704531 18.58781 -0.8111462 0.4263002 9.094392 -2.502992 11.81713 -1.858235 2.656216 19.80548 2.690209 -0.06535033 -11.25979 5.786459 0.9450379 -22.77884 10.39427 79.36493 15.2744 -2.088356 -0 0 27.4577 -23.84829 10.96248 13.47732 2.728582 -14.85919 -1.66585 -90.99092 21.80451 25.0766 0 0 -12.61614 -4.049124 6.155945 20.11636
41.17261 102.1088 280.3557 2.170114 -8.203746 3.006213 -0.4537476 13.6828 4.695346 -0 45.07651 -0 2.15612 -7.568523 -5.00389 -3.73948 -17.40239 -4.564137 -0 27.79008 -0 -7.352811 -10.36919 18.19148 -1.096278 0.1681472 8.64009 -2.439515 11.80741 -1.946162 2.698807 19.99652 2.639426 -0.2743027 -11.26233 5.943479 1.598884 -21.60862 10.3499 80.46621 15.51369 -3.680695 -0 0 25.2363 -23.61229 11.22661 12.8984 2.626513 -14.9517 -1.742074 -90.29854 22.28251 24.048 0 0 -12.51826 -4.108651 6.28851 20.14573
42.58514 103.2029 286.9944 2.566431 -8.896519 3.817657 -0.4211349 9.760828 3.849469 -0 51.67994 -0 1.092789 -8.223877 -6.367628 -4.775297 -12.34474 -4.831177 -0 27.4946 -0 -6.988871 -12.17661 17.65507 -1.404892 0.3858532 7.712092 -2.414006 11.88356 -2.320976 2.601303 20.3835 2.758469 -0.5547013 -11.1829 6.201463 2.355566 -20.70947 10.42299 81.60771 15.94704 -5.302591 -0 0 22.66096 -23.15798 11.56371 12.20527 2.364521 -15.29601 -2.092832 -89.33161 22.86326 22.35203 0 0 -12.56517 -4.114148 6.484861 20.07513
43.80344 104.5372 293.0408 2.570325 -9.568598 4.569243 -0.1546333 3.949526 3.240534 -0 54.447 -0 0.1594764 -8.691591 -7.244214 -5.12609 -6.756901 -4.946687 -0 25.73221 -0 -6.816367 -13.62903 16.9712 -1.621428 0.7950055 6.45588 -2.082607 11.88364 -3.059889 2.439737 20.90873 2.994266 -0.8483724 -11.01447 6.546424 2.959609 -19.77881 10.46038 83.06349 16.49013 -7.132928 -0 0 20.16244 -22.59931 11.92107 11.58207 2.27933 -15.87854 -2.66601 -88.16544 23.5167 19.89536 0 0 -12.94358 -4.069131 6.746755 19.90302
44.84739 105.8901 298.7888 2.339619 -9.42464 5.703009 0.4719262 -1.971759 3.076726 -0 54.1343 -0 -0.6237735 -7.936092 -7.347929 -5.087031 -1.107057 -5.059349 -0 22.53367 -0 -6.793362 -14.85649 16.02964 -1.694163 0.8794393 4.929378 -1.446665 11.57264 -4.379711 2.181876 21.36244 3.321188 -1.159196 -10.84848 6.903569 3.194892 -18.67933 10.25968 84.52241 16.93366 -9.278651 -0 0 17.90584 -22.09153 12.20048 11.07097 2.444346 -16.66125 -3.535409 -86.79771 24.22719 16.80159 0 0 -13.59022 -4.010808 7.039557 19.62524
45.89584 106.6608 304.2274 2.163283 -8.624929 7.061911 0.9282824 -6.955438 3.329006 -0 50.12591 -0 -1.475915 -6.281654 -7.322532 -4.957617 3.471979 -5.490961 -0 19.23889 -0 -6.847765 -16.01271 14.90533 -1.960071 0.83611 3.600077 -0.7131261 11.25723 -5.909568 2.176489 21.75608 3.450529 -1.293102 -10.68244 7.179801 2.929856 -17.5436 9.613609 85.73004 17.2285 -11.63083 -0 0 15.71998 -21.64253 12.37 10.57234 2.86724 -17.28568 -4.083937 -85.32155 24.77672 13.62288 0 0 -14.78593 -3.72002 7.430615 18.94075
46.92782 106.5282 310.0233 2.275264 -8.484901 8.714169 0.7316642 -13.14056 3.415121 -0 43.30281 -0 -2.101858 -5.573608 -8.220504 -4.577366 8.236234 -6.125113 -0 16.55439 -0 -6.897808 -17.40199 13.62125 -2.277808 0.6811404 2.654432 0.1263302 10.64479 -7.218785 2.464663 21.69762 3.583374 -1.314411 -11.05042 7.688328 2.31204 -15.99111 8.850989 86.69081 17.41839 -14.2828 -0 0 13.3632 -21.28266 12.47847 10.06142 3.502722 -17.82403 -4.42461 -83.72041 25.13327 10.36182 0 0 -16.61937 -3.225189 7.886206 17.9217
47.88281 105.8124 315.3424 2.420875 -8.109335 10.07438 -0.01899018 -18.30129 3.354672 -0 34.96852 -0 -2.790181 -4.801853 -9.48291 -4.391831 12.19794 -6.490179 -0 14.77104 -0 -6.956855 -18.91041 12.56737 -2.601374 0.9258612 2.009741 0.79945 10.11158 -8.057394 2.872 21.7683 3.503045 -1.220211 -11.39819 8.005397 1.802144 -14.7376 8.343232 87.36102 17.61033 -16.54027 -0 0 11.05443 -20.97154 12.5739 9.54474 4.049219 -18.70982 -4.538818 -81.88135 25.33107 6.818834 0 0 -18.73529 -2.563796 8.367351 16.7263
